<?xml version="1.0" encoding="UTF-8" standalone="no"?>
<!-- Created with Inkscape (http://www.inkscape.org/) -->

<svg
   xmlns:dc="http://purl.org/dc/elements/1.1/"
   xmlns:cc="http://creativecommons.org/ns#"
   xmlns:rdf="http://www.w3.org/1999/02/22-rdf-syntax-ns#"
   xmlns:svg="http://www.w3.org/2000/svg"
   xmlns="http://www.w3.org/2000/svg"
   xmlns:xlink="http://www.w3.org/1999/xlink"
   xmlns:sodipodi="http://sodipodi.sourceforge.net/DTD/sodipodi-0.dtd"
   xmlns:inkscape="http://www.inkscape.org/namespaces/inkscape"
   width="1271.1421mm"
   height="393.92883mm"
   viewBox="0 0 1271.142 393.92883"
   version="1.1"
   id="svg8"
   inkscape:version="0.92.5 (2060ec1f9f, 2020-04-08)"
   sodipodi:docname="logo_writing.svg"
   inkscape:export-filename="/home/alessandro/Projects/Miniprojects/slipy/docs/source/_static/logo_writing.png"
   inkscape:export-xdpi="45.580738"
   inkscape:export-ydpi="45.580738">
  <defs
     id="defs2" />
  <sodipodi:namedview
     id="base"
     pagecolor="#ffffff"
     bordercolor="#666666"
     borderopacity="1.0"
     inkscape:pageopacity="0.0"
     inkscape:pageshadow="2"
     inkscape:zoom="0.12374369"
     inkscape:cx="3334.368"
     inkscape:cy="27.905232"
     inkscape:document-units="mm"
     inkscape:current-layer="layer1"
     showgrid="false"
     inkscape:object-paths="false"
     inkscape:window-width="1920"
     inkscape:window-height="1055"
     inkscape:window-x="0"
     inkscape:window-y="-12"
     inkscape:window-maximized="1" />
  <metadata
     id="metadata5">
    <rdf:RDF>
      <cc:Work
         rdf:about="">
        <dc:format>image/svg+xml</dc:format>
        <dc:type
           rdf:resource="http://purl.org/dc/dcmitype/StillImage" />
        <dc:title />
      </cc:Work>
    </rdf:RDF>
  </metadata>
  <g
     inkscape:label="Layer 1"
     inkscape:groupmode="layer"
     id="layer1"
     transform="translate(117.60078,224.51523)">
    <g
       id="g839"
       transform="translate(-2.2679098,-0.26506197)">
      <rect
         ry="14.411814"
         y="-223.21207"
         x="-114.02971"
         height="391.32251"
         width="539.65607"
         id="rect815"
         style="fill:#131d26;fill-opacity:1;stroke:#f9f9f9;stroke-width:2.6063211;stroke-miterlimit:4;stroke-dasharray:none;stroke-dashoffset:0;stroke-opacity:1" />
      <g
         transform="matrix(7.4965481,0,0,7.4965481,-496.97304,-457.00876)"
         id="g874">
        <path
           style="fill:none;stroke:#cccccc;stroke-width:0.94273055;stroke-linecap:round;stroke-linejoin:miter;stroke-miterlimit:4;stroke-dasharray:none;stroke-opacity:1"
           d="m 55.181288,35.205146 4.684516,2.956893 -4.684379,2.957152"
           id="path868"
           inkscape:connector-curvature="0" />
        <path
           style="fill:none;stroke:#e1e1e1;stroke-width:0.46171889;stroke-linecap:round;stroke-linejoin:miter;stroke-miterlimit:4;stroke-dasharray:none;stroke-opacity:1"
           d="M 67.831058,41.363279 H 62.605223"
           id="path870"
           inkscape:connector-curvature="0" />
      </g>
      <rect
         ry="7.7555585"
         y="-92.353645"
         x="67.050621"
         height="210.58589"
         width="290.40997"
         id="rect815-9"
         style="fill:#eabf14;fill-opacity:1;stroke:#ffffff;stroke-width:5.15012836;stroke-miterlimit:4;stroke-dasharray:none;stroke-dashoffset:0;stroke-opacity:1" />
      <rect
         ry="7.7555585"
         y="-128.32166"
         x="112.6542"
         height="210.58589"
         width="290.40997"
         id="rect815-9-2"
         style="fill:#cd09ac;fill-opacity:1;stroke:#ffffff;stroke-width:5.15012836;stroke-miterlimit:4;stroke-dasharray:none;stroke-dashoffset:0;stroke-opacity:1" />
      <rect
         ry="7.7555585"
         y="-164.28964"
         x="158.25775"
         height="210.58589"
         width="290.41003"
         id="rect815-9-2-8"
         style="fill:#0976cd;fill-opacity:1;stroke:#ffffff;stroke-width:5.15012836;stroke-miterlimit:4;stroke-dasharray:none;stroke-dashoffset:0;stroke-opacity:1" />
    </g>
    <g
       transform="matrix(32.440045,0,0,32.440045,-2115.556,-3898.9363)"
       id="layer1-3"
       inkscape:label="Layer 1"
       style="fill:#131d26;fill-opacity:1;stroke:#64cf51;stroke-width:0.13356948;stroke-miterlimit:4;stroke-dasharray:none;stroke-opacity:1">
      <path
         sodipodi:type="inkscape:offset"
         inkscape:radius="0"
         inkscape:original="M 86.138672 114.43164 L 85.386719 114.67578 L 85.386719 120.71875 C 85.386719 121.5125 85.979276 121.97806 87.005859 121.88281 L 87.005859 121.48047 C 86.466109 121.4593 86.138672 121.3111 86.138672 120.69727 L 86.138672 114.43164 z M 88.359375 115.05664 C 88.073625 115.05664 87.851562 115.27757 87.851562 115.55273 L 87.851562 115.56445 C 87.851562 115.83962 88.074443 116.06055 88.349609 116.06055 C 88.635359 116.06055 88.857422 115.83962 88.857422 115.56445 C 88.857422 115.2787 88.634542 115.05664 88.359375 115.05664 z M 82.751953 117.02344 C 81.926453 117.02344 81.130859 117.51139 81.130859 118.40039 C 81.130859 118.83431 81.322172 119.09938 81.576172 119.2793 C 81.819589 119.4698 82.116594 119.57581 82.402344 119.68164 C 82.55051 119.72397 82.698354 119.78693 82.835938 119.83984 C 83.185187 119.97743 83.596839 120.11523 83.607422 120.57031 C 83.628589 121.1524 83.025578 121.38477 82.517578 121.38477 C 82.104828 121.37418 81.639766 121.21607 81.322266 120.97266 L 81.046875 121.41602 C 81.449042 121.72293 81.989547 121.93555 82.529297 121.93555 C 83.418297 121.93555 84.36051 121.46944 84.371094 120.47461 C 84.371094 120.05128 84.179781 119.7753 83.925781 119.57422 C 83.682365 119.38372 83.385359 119.27853 83.099609 119.16211 C 82.803276 119.04569 82.48674 118.91833 82.253906 118.8125 C 82.01049 118.70667 81.851562 118.55951 81.851562 118.29492 C 81.862146 117.79751 82.348469 117.56445 82.792969 117.56445 C 83.131635 117.57504 83.459344 117.67001 83.808594 117.87109 L 84.095703 117.41602 C 83.67237 117.18318 83.228203 117.02344 82.751953 117.02344 z M 88.742188 117.05664 L 87.978516 117.31055 L 87.978516 121.80859 L 88.742188 121.80859 L 88.742188 117.05664 z M 92.328125 117.05664 C 90.761792 117.07781 90.159339 117.87109 90.169922 117.87109 L 90.160156 123.95703 L 90.921875 124.23242 L 90.921875 121.49023 C 91.355792 121.75482 91.799776 121.91406 92.318359 121.91406 C 93.588359 121.87173 94.181641 120.75955 94.181641 119.57422 C 94.171057 118.23014 93.59926 117.04524 92.339844 117.06641 L 92.328125 117.05664 z M 96.234375 117.05664 L 95.451172 117.32031 L 95.451172 120.53711 C 95.451172 121.39436 96.244859 121.89258 96.943359 121.89258 C 97.853526 121.89258 98.372635 121.63904 98.605469 121.5332 C 98.616052 121.64962 98.605469 121.61796 98.605469 121.73438 C 98.605469 122.07304 98.594297 122.65484 98.435547 122.95117 C 98.118047 123.55442 97.270401 123.63799 96.677734 123.72266 L 96.806641 124.21094 C 97.589807 124.18977 98.690448 123.89318 99.082031 123.15234 C 99.304281 122.72901 99.335938 121.91475 99.335938 121.375 L 99.335938 117.17188 L 98.5625 117.17188 L 98.5625 120.95117 C 98.3085 121.12051 97.842437 121.3527 97.429688 121.36328 C 96.741771 121.37386 96.234375 121.00401 96.234375 120.29492 L 96.234375 117.05664 z M 92.201172 117.57422 C 93.164255 117.61655 93.292969 118.75948 93.292969 119.52148 C 93.292969 120.30465 93.164437 121.29978 92.148438 121.36328 C 91.672188 121.39503 91.164156 121.11969 90.910156 120.96094 L 90.910156 117.94531 C 91.01599 117.83948 91.545005 117.53189 92.201172 117.57422 z "
         xlink:href="#text817"
         style="font-style:normal;font-variant:normal;font-weight:normal;font-stretch:normal;font-size:10.58333302px;line-height:1.25;font-family:Flux;-inkscape-font-specification:Flux;letter-spacing:0px;word-spacing:0px;fill:none;fill-opacity:1;stroke:#131d26;stroke-width:0.74084359;stroke-miterlimit:4;stroke-dasharray:none;stroke-opacity:1"
         id="path2338"
         inkscape:href="#text817"
         d="m 86.138672,114.43164 -0.751953,0.24414 v 6.04297 c 0,0.79375 0.592557,1.25931 1.61914,1.16406 v -0.40234 c -0.53975,-0.0212 -0.867187,-0.16937 -0.867187,-0.7832 z m 2.220703,0.625 c -0.28575,0 -0.507813,0.22093 -0.507813,0.49609 v 0.0117 c 0,0.27517 0.222881,0.4961 0.498047,0.4961 0.28575,0 0.507813,-0.22093 0.507813,-0.4961 0,-0.28575 -0.22288,-0.50781 -0.498047,-0.50781 z m -5.607422,1.9668 c -0.8255,0 -1.621094,0.48795 -1.621094,1.37695 0,0.43392 0.191313,0.69899 0.445313,0.87891 0.243417,0.1905 0.540422,0.29651 0.826172,0.40234 0.148166,0.0423 0.29601,0.10529 0.433594,0.1582 0.349249,0.13759 0.760901,0.27539 0.771484,0.73047 0.02117,0.58209 -0.581844,0.81446 -1.089844,0.81446 -0.41275,-0.0106 -0.877812,-0.1687 -1.195312,-0.41211 l -0.275391,0.44336 c 0.402167,0.30691 0.942672,0.51953 1.482422,0.51953 0.889,0 1.831213,-0.46611 1.841797,-1.46094 0,-0.42333 -0.191313,-0.69931 -0.445313,-0.90039 -0.243416,-0.1905 -0.540422,-0.29569 -0.826172,-0.41211 -0.296333,-0.11642 -0.612869,-0.24378 -0.845703,-0.34961 -0.243416,-0.10583 -0.402344,-0.25299 -0.402344,-0.51758 0.01058,-0.49741 0.496907,-0.73047 0.941407,-0.73047 0.338666,0.0106 0.666375,0.10556 1.015625,0.30664 l 0.287109,-0.45507 c -0.423333,-0.23284 -0.8675,-0.39258 -1.34375,-0.39258 z m 5.990235,0.0332 -0.763672,0.25391 v 4.49804 h 0.763672 z m 3.585937,0 c -1.566333,0.0212 -2.168786,0.81445 -2.158203,0.81445 l -0.0098,6.08594 0.761719,0.27539 v -2.74219 c 0.433917,0.26459 0.877901,0.42383 1.396484,0.42383 1.27,-0.0423 1.863282,-1.15451 1.863282,-2.33984 -0.01058,-1.34408 -0.582381,-2.52898 -1.841797,-2.50781 z m 3.90625,0 -0.783203,0.26367 v 3.2168 c 0,0.85725 0.793687,1.35547 1.492187,1.35547 0.910167,0 1.429276,-0.25354 1.66211,-0.35938 0.01058,0.11642 0,0.0848 0,0.20118 0,0.33866 -0.01117,0.92046 -0.169922,1.21679 -0.3175,0.60325 -1.165146,0.68682 -1.757813,0.77149 l 0.128907,0.48828 c 0.783166,-0.0212 1.883807,-0.31776 2.27539,-1.0586 0.22225,-0.42333 0.253907,-1.23759 0.253907,-1.77734 v -4.20312 H 98.5625 v 3.77929 c -0.254,0.16934 -0.720063,0.40153 -1.132812,0.41211 -0.687917,0.0106 -1.195313,-0.35927 -1.195313,-1.06836 z m -4.033203,0.51758 c 0.963083,0.0423 1.091797,1.18526 1.091797,1.94726 0,0.78317 -0.128532,1.7783 -1.144531,1.8418 -0.47625,0.0318 -0.984282,-0.24359 -1.238282,-0.40234 v -3.01563 c 0.105834,-0.10583 0.634849,-0.41342 1.291016,-0.37109 z" />
      <text
         id="text817"
         y="121.80804"
         x="80.697914"
         style="font-style:normal;font-variant:normal;font-weight:normal;font-stretch:normal;font-size:10.58333302px;line-height:1.25;font-family:Flux;-inkscape-font-specification:Flux;letter-spacing:0px;word-spacing:0px;fill:#131d26;fill-opacity:1;stroke:#64cf51;stroke-width:0.15514775;stroke-miterlimit:4;stroke-dasharray:none;stroke-opacity:1"
         xml:space="preserve"><tspan
           style="fill:#131d26;fill-opacity:1;stroke:#64cf51;stroke-width:0.15514775;stroke-miterlimit:4;stroke-dasharray:none;stroke-opacity:1"
           y="121.80804"
           x="80.697914"
           id="tspan815"
           sodipodi:role="line">slipy</tspan></text>
    </g>
  </g>
</svg>
